<?xml version="1.0" encoding="UTF-8"?>
<svg width="128pt" height="128pt" version="1.1" viewBox="0 0 128 128" xmlns="http://www.w3.org/2000/svg">
 <g>
  <path d="m73.215 18.559c0 5.0898-4.125 9.2188-9.2148 9.2188s-9.2148-4.1289-9.2148-9.2188 4.125-9.2148 9.2148-9.2148 9.2148 4.125 9.2148 9.2148"/>
  <path d="m31.105 77.055c0 5.0898-4.1289 9.2188-9.2188 9.2188-5.0898 0-9.2148-4.1289-9.2148-9.2188 0-5.0898 4.125-9.2148 9.2148-9.2148 5.0898 0 9.2188 4.125 9.2188 9.2148"/>
  <path d="m38.527 102.66c-0.64062-2.3047-2.1758-5.2461-3.7109-8.0625l-0.38281-0.64062c-1.6641-2.9453-3.9688-4.4805-6.9102-4.4805h-11.137c-3.0703 0-5.375 1.5352-6.9102 4.4805l-0.51562 0.51172c-1.5352 2.8164-3.0703 5.8867-3.7109 8.0625-0.64062 2.3047-1.9219 9.0898-2.0469 9.3438-0.38281 1.9219 0.89453 3.8398 2.8164 4.2227 0.25781 0 0.51172 0.12891 0.64062 0.12891 1.6641 0 3.1992-1.1523 3.457-2.8164 0-0.12891 1.2812-6.7852 1.9219-8.832 0.25781-0.89453 0.76953-2.1758 1.4062-3.457l-0.51172 15.359c0 1.2812 1.0234 2.3047 2.3047 2.3047h13.055c1.2812 0 2.3047-1.0234 2.3047-2.3047l-0.51172-15.359c0.64062 1.2812 1.2812 2.5586 1.4062 3.457 0.51172 2.1758 1.9219 8.832 1.9219 8.832 0.38281 1.9219 2.1758 3.1992 4.2227 2.8164 1.9219-0.38281 3.1992-2.3047 2.8164-4.2227-0.003906-0.38281-1.2852-7.0391-1.9258-9.3438z"/>
  <path d="m73.215 77.055c0 5.0898-4.125 9.2188-9.2148 9.2188s-9.2148-4.1289-9.2148-9.2188c0-5.0898 4.125-9.2148 9.2148-9.2148s9.2148 4.125 9.2148 9.2148"/>
  <path d="m80.641 102.66c-0.64062-2.3047-2.1758-5.2461-3.7109-8.0625l-0.38281-0.64062c-1.6641-2.9453-3.9688-4.4805-6.9102-4.4805h-11.137c-3.0703 0-5.375 1.5352-6.9102 4.4805l-0.38281 0.64062c-1.5352 2.8164-3.0703 5.8867-3.7109 8.0625-0.64062 2.3047-1.9219 9.0898-2.0469 9.3438-0.38281 1.9219 0.89453 3.8398 2.8164 4.2227 0.25781 0 0.51172 0.12891 0.64062 0.12891 1.6641 0 3.1992-1.1523 3.457-2.8164 0-0.12891 1.2812-6.7852 1.9219-8.832 0.25781-0.89453 0.76953-2.1758 1.4062-3.457l-0.51172 15.359c0 1.2812 1.0234 2.3047 2.3047 2.3047h13.055c1.2812 0 2.3047-1.0234 2.3047-2.3047l-0.51172-15.359c0.64062 1.2812 1.2812 2.5586 1.4062 3.457 0.51172 2.1758 1.9219 8.832 1.9219 8.832 0.38281 1.9219 2.1758 3.1992 4.2227 2.8164 1.9219-0.38281 3.1992-2.3047 2.8164-4.2227-0.14062-0.51172-1.418-7.168-2.0586-9.4727z"/>
  <path d="m115.33 77.055c0 5.0898-4.125 9.2188-9.2148 9.2188-5.0898 0-9.2188-4.1289-9.2188-9.2188 0-5.0898 4.1289-9.2148 9.2188-9.2148 5.0898 0 9.2148 4.125 9.2148 9.2148"/>
  <path d="m124.67 111.87c0-0.25781-1.4062-6.9102-2.0469-9.3438-0.64062-2.3047-2.1758-5.2461-3.7109-8.0625l-0.38281-0.64062c-1.6641-2.9453-3.9688-4.4805-6.9102-4.4805h-11.137c-3.0703 0-5.375 1.5352-6.9102 4.4805l-0.38281 0.64062c-1.5352 2.8164-3.0703 5.8867-3.7109 8.0625-0.64062 2.3047-1.9219 9.0898-2.0469 9.3438-0.38281 1.9219 0.89453 3.8398 2.8164 4.2227 0.25781 0 0.51172 0.12891 0.64062 0.12891 1.6641 0 3.1992-1.1523 3.457-2.8164 0-0.12891 1.2812-6.7852 1.9219-8.832 0.25781-0.89453 0.76953-2.1758 1.4062-3.457l-0.51172 15.359c0 1.2812 1.0234 2.3047 2.3047 2.3047l13.172 0.003906c1.2812 0 2.3047-1.0234 2.3047-2.3047l-0.51172-15.359c0.64062 1.2812 1.2812 2.5586 1.4062 3.457 0.51172 2.1758 1.9219 8.832 1.9219 8.832 0.38281 1.9219 2.1758 3.1992 4.2227 2.8164 1.918-0.51562 3.0703-2.4336 2.6875-4.3555z"/>
  <path d="m9.8555 62.977h108.29c1.2812 0 2.4336-1.0234 2.4336-2.3047v-1.9219c0-1.2812-1.0234-2.3047-2.4336-2.3047l-44.418 0.003907-0.64062-18.434c3.1992-0.25781 7.4258-1.1523 10.238-3.3281 2.0469-1.5352 5.6328-7.6797 8.1914-12.543 0.89453-1.793 0.25781-3.8398-1.5352-4.7344-1.793-0.89453-3.8398-0.25781-4.7344 1.5352-2.1758 4.2227-5.2461 9.3438-6.2734 10.367-1.9219 1.4062-6.2734 2.0469-9.4727 2.0469h-11.137c-3.1992 0-7.5508-0.64062-9.4727-2.0469-1.0234-1.0234-3.9688-6.1445-6.2734-10.367-0.89453-1.793-3.0703-2.4336-4.7344-1.5352-1.793 0.89453-2.4336 3.0703-1.5352 4.7344 2.5586 4.8633 6.1445 11.008 8.1914 12.543 2.8164 2.1758 7.0391 2.9453 10.238 3.3281l-0.50391 18.305h-44.418c-1.2812 0-2.3047 1.0234-2.3047 2.3047v1.9219c-0.125 1.4062 1.0234 2.4297 2.3047 2.4297z"/>
 </g>
</svg>
