<?xml version="1.0" encoding="utf-8"?>
<!-- Generator: Adobe Illustrator 27.5.0, SVG Export Plug-In . SVG Version: 6.00 Build 0)  -->
<svg version="1.1" id="Layer_1" xmlns="http://www.w3.org/2000/svg" xmlns:xlink="http://www.w3.org/1999/xlink" x="0px" y="0px"
	 viewBox="0 0 128 128" style="enable-background:new 0 0 128 128;" xml:space="preserve">
<g>
	<path d="M73.2,18.6c0,5.1-4.1,9.2-9.2,9.2s-9.2-4.1-9.2-9.2s4.1-9.2,9.2-9.2S73.2,13.5,73.2,18.6"/>
	<path d="M31.1,77.1c0,5.1-4.1,9.2-9.2,9.2c-5.1,0-9.2-4.1-9.2-9.2c0-5.1,4.1-9.2,9.2-9.2S31.1,72,31.1,77.1"/>
	<path d="M38.5,102.7c-0.6-2.3-2.2-5.2-3.7-8.1L34.4,94c-1.7-2.9-4-4.5-6.9-4.5H16.4c-3.1,0-5.4,1.5-6.9,4.5L9,94.5
		c-1.5,2.8-3.1,5.9-3.7,8.1c-0.6,2.3-1.9,9.1-2,9.3c-0.4,1.9,0.9,3.8,2.8,4.2c0.3,0,0.5,0.1,0.6,0.1c1.7,0,3.2-1.2,3.5-2.8
		c0-0.1,1.3-6.8,1.9-8.8c0.3-0.9,0.8-2.2,1.4-3.5l-0.5,15.4c0,1.3,1,2.3,2.3,2.3h13.1c1.3,0,2.3-1,2.3-2.3l-0.5-15.4
		c0.6,1.3,1.3,2.6,1.4,3.5c0.5,2.2,1.9,8.8,1.9,8.8c0.4,1.9,2.2,3.2,4.2,2.8c1.9-0.4,3.2-2.3,2.8-4.2
		C40.4,111.6,39.2,105,38.5,102.7L38.5,102.7z"/>
	<path d="M73.2,77.1c0,5.1-4.1,9.2-9.2,9.2s-9.2-4.1-9.2-9.2c0-5.1,4.1-9.2,9.2-9.2S73.2,72,73.2,77.1"/>
	<path d="M80.6,102.7c-0.6-2.3-2.2-5.2-3.7-8.1L76.5,94c-1.7-2.9-4-4.5-6.9-4.5H58.5c-3.1,0-5.4,1.5-6.9,4.5l-0.4,0.6
		c-1.5,2.8-3.1,5.9-3.7,8.1c-0.6,2.3-1.9,9.1-2,9.3c-0.4,1.9,0.9,3.8,2.8,4.2c0.3,0,0.5,0.1,0.6,0.1c1.7,0,3.2-1.2,3.5-2.8
		c0-0.1,1.3-6.8,1.9-8.8c0.3-0.9,0.8-2.2,1.4-3.5l-0.5,15.4c0,1.3,1,2.3,2.3,2.3h13.1c1.3,0,2.3-1,2.3-2.3l-0.5-15.4
		c0.6,1.3,1.3,2.6,1.4,3.5c0.5,2.2,1.9,8.8,1.9,8.8c0.4,1.9,2.2,3.2,4.2,2.8c1.9-0.4,3.2-2.3,2.8-4.2
		C82.6,111.6,81.3,105,80.6,102.7L80.6,102.7z"/>
	<path d="M115.3,77.1c0,5.1-4.1,9.2-9.2,9.2s-9.2-4.1-9.2-9.2c0-5.1,4.1-9.2,9.2-9.2C111.2,67.8,115.3,72,115.3,77.1"/>
	<path d="M124.7,111.9c0-0.3-1.4-6.9-2-9.3c-0.6-2.3-2.2-5.2-3.7-8.1l-0.4-0.6c-1.7-2.9-4-4.5-6.9-4.5h-11.1c-3.1,0-5.4,1.5-6.9,4.5
		l-0.4,0.6c-1.5,2.8-3.1,5.9-3.7,8.1c-0.6,2.3-1.9,9.1-2,9.3c-0.4,1.9,0.9,3.8,2.8,4.2c0.3,0,0.5,0.1,0.6,0.1c1.7,0,3.2-1.2,3.5-2.8
		c0-0.1,1.3-6.8,1.9-8.8c0.3-0.9,0.8-2.2,1.4-3.5l-0.5,15.4c0,1.3,1,2.3,2.3,2.3l13.2,0c1.3,0,2.3-1,2.3-2.3l-0.5-15.4
		c0.6,1.3,1.3,2.6,1.4,3.5c0.5,2.2,1.9,8.8,1.9,8.8c0.4,1.9,2.2,3.2,4.2,2.8C123.9,115.7,125.1,113.8,124.7,111.9L124.7,111.9z"/>
	<path d="M9.9,63h108.3c1.3,0,2.4-1,2.4-2.3v-1.9c0-1.3-1-2.3-2.4-2.3l-44.4,0L73.1,38c3.2-0.3,7.4-1.2,10.2-3.3
		c2-1.5,5.6-7.7,8.2-12.5c0.9-1.8,0.3-3.8-1.5-4.7c-1.8-0.9-3.8-0.3-4.7,1.5c-2.2,4.2-5.2,9.3-6.3,10.4c-1.9,1.4-6.3,2-9.5,2H58.4
		c-3.2,0-7.6-0.6-9.5-2c-1-1-4-6.1-6.3-10.4c-0.9-1.8-3.1-2.4-4.7-1.5c-1.8,0.9-2.4,3.1-1.5,4.7c2.6,4.9,6.1,11,8.2,12.5
		c2.8,2.2,7,2.9,10.2,3.3l-0.5,18.3H9.9c-1.3,0-2.3,1-2.3,2.3v1.9C7.4,62,8.6,63,9.9,63L9.9,63z"/>
</g>
</svg>
